<?xml version="1.0" standalone="no"?>
<!DOCTYPE svg PUBLIC "-//W3C//DTD SVG 20010904//EN"
 "http://www.w3.org/TR/2001/REC-SVG-20010904/DTD/svg10.dtd">
<svg version="1.0" xmlns="http://www.w3.org/2000/svg"
 width="256.000000pt" height="256.000000pt" viewBox="0 0 256.000000 256.000000"
 preserveAspectRatio="xMidYMid meet">
<metadata>
Created by potrace 1.14, written by Peter Selinger 2001-2017
</metadata>
<g transform="translate(0.000000,256.000000) scale(0.100000,-0.100000)"
fill="#000000" stroke="none">
<path d="M80 1480 l0 -560 520 0 520 0 0 280 0 280 40 0 40 0 0 40 0 40 80 0
80 0 0 -40 0 -40 40 0 40 0 0 -280 0 -280 520 0 520 0 0 560 0 560 -520 0
-520 0 0 -160 0 -160 -160 0 -160 0 0 160 0 160 -520 0 -520 0 0 -560z m880 0
l0 -400 -360 0 -360 0 0 400 0 400 360 0 360 0 0 -400z m1360 0 l0 -400 -360
0 -360 0 0 400 0 400 360 0 360 0 0 -400z"/>
<path d="M480 1680 l0 -40 -40 0 -40 0 0 -120 0 -120 40 0 40 0 0 -40 0 -40
120 0 120 0 0 40 0 40 40 0 40 0 0 120 0 120 -40 0 -40 0 0 40 0 40 -120 0
-120 0 0 -40z m160 -80 l0 -40 -40 0 -40 0 0 40 0 40 40 0 40 0 0 -40z"/>
<path d="M1840 1680 l0 -40 -40 0 -40 0 0 -120 0 -120 40 0 40 0 0 -40 0 -40
120 0 120 0 0 40 0 40 40 0 40 0 0 120 0 120 -40 0 -40 0 0 40 0 40 -120 0
-120 0 0 -40z m240 -80 l0 -40 -40 0 -40 0 0 40 0 40 40 0 40 0 0 -40z"/>
<path d="M62 748 c-36 -36 20 -98 192 -212 268 -179 570 -270 931 -283 495
-17 914 113 1263 391 50 40 62 55 60 75 -2 13 -11 29 -20 34 -21 14 -43 3
-130 -66 -414 -326 -1068 -434 -1636 -271 -178 51 -384 158 -529 275 -87 69
-109 79 -131 57z"/>
</g>
</svg>
